HIERARCHY
ROOT hip
{
  OFFSET 0 0 0
  CHANNELS 6 Xposition Yposition Zposition Zrotation Xrotation Yrotation
  JOINT abdomen
  {
    OFFSET 0.382852 7.22954 -0.0131598
    CHANNELS 3 Zrotation Xrotation Yrotation
    JOINT chest
    {
      OFFSET 0 16.5317 -0.765563
      CHANNELS 3 Zrotation Xrotation Yrotation
      JOINT neck
      {
        OFFSET -1.54851e-005 36.467 -4.32767
        CHANNELS 3 Zrotation Xrotation Yrotation
        JOINT head
        {
          OFFSET 0 10.4509 2.78238
          CHANNELS 3 Zrotation Xrotation Yrotation
          End Site
          {
            OFFSET 0 13.6483 2.8643
          }
        }
      }
      JOINT lCollar
      {
        OFFSET 3.05824 30.965 -6.75914
        CHANNELS 3 Zrotation Xrotation Yrotation
        JOINT lShldr
        {
          OFFSET 15.0645 0.0677185 -0.441115
          CHANNELS 3 Zrotation Xrotation Yrotation
          JOINT lForeArm
          {
            OFFSET 29.6373 0.773632 0.573944
            CHANNELS 3 Zrotation Xrotation Yrotation
            JOINT lHand
            {
              OFFSET 27.1742 0.781666 2.1178
              CHANNELS 3 Zrotation Xrotation Yrotation
              End Site
              {
                OFFSET 8.97645 -0.320339 0.148499
              }
            }
          }
        }
      }
      JOINT rCollar
      {
        OFFSET -3.05827 30.965 -6.75913
        CHANNELS 3 Zrotation Xrotation Yrotation
        JOINT rShldr
        {
          OFFSET -15.0645 0.0677185 -0.441067
          CHANNELS 3 Zrotation Xrotation Yrotation
          JOINT rForeArm
          {
            OFFSET -29.6373 0.773644 0.574036
            CHANNELS 3 Zrotation Xrotation Yrotation
            JOINT rHand
            {
              OFFSET -27.1742 0.781676 2.11789
              CHANNELS 3 Zrotation Xrotation Yrotation
              End Site
              {
                OFFSET -8.97645 -0.320336 0.148525
              }
            }
          }
        }
      }
    }
  }
  JOINT lThigh
  {
    OFFSET 8.73786 0 0
    CHANNELS 3 Zrotation Xrotation Yrotation
    JOINT lShin
    {
      OFFSET -0.218648 -43.6387 -2.09098
      CHANNELS 3 Zrotation Xrotation Yrotation
      JOINT lFoot
      {
        OFFSET -0.7694 -43.3017 -5.75582
        CHANNELS 3 Zrotation Xrotation Yrotation
        JOINT lToe
        {
          OFFSET 2.4699 -8.89869 14.0045
          CHANNELS 3 Zrotation Xrotation Yrotation
          End Site
          {
            OFFSET -0.0327013 -0.0137976 4.5702
          }
        }
      }
    }
  }
  JOINT rThigh
  {
    OFFSET -8.73786 0 1.69277e-005
    CHANNELS 3 Zrotation Xrotation Yrotation
    JOINT rShin
    {
      OFFSET 0.218536 -43.6387 -2.09099
      CHANNELS 3 Zrotation Xrotation Yrotation
      JOINT rFoot
      {
        OFFSET 0.769259 -43.3017 -5.75565
        CHANNELS 3 Zrotation Xrotation Yrotation
        JOINT rToe
        {
          OFFSET -2.37053 -8.8846 14.0306
          CHANNELS 3 Zrotation Xrotation Yrotation
          End Site
          {
            OFFSET 0.0327196 0 4.57023
          }
        }
      }
    }
  }
}
MOTION
Frames:	14
Frame Time:	0.0333333
22.0814 95.5848 -3.55784 4.82671 -3.9337 21.7432 -3.05042 -1.4941e-005 2.3361e-007 -0.0548714 13.1179 0.00284115 -1.28733e-006 -6.83019e-006 -6.5342e-006 0.0988351 -13.4936 3.66004 -9.37389 -0.124409 -1.74222 -67.3883 -0.406197 2.73929 -0.160018 -0.0954908 3.58581 5.12264e-006 1.08856e-005 6.83019e-006 9.3739 -0.124382 1.74221 66.5997 -5.77828 5.11281 -1.12701 0.357107 22.902 8.53773e-007 -3.84198e-006 -8.53774e-006 -12.9037 6.83273 9.94754 0.716013 -4.76268 0.0193942 8.03553 -1.29384 0.122638 0.152814 -0.31008 19.9971 -11.2468 -14.1197 -4.68993 2.78559 17.9039 -0.478322 -3.51443 1.84515 1.16562 1.11744e-005 1.19795e-005 -20 
22.3036 95.4836 -3.42755 4.83178 -3.81801 22.3052 -3.05042 -7.68396e-006 2.87784e-006 -0.0527743 13.1019 0.00263842 8.7245e-006 7.68396e-006 2.01771e-007 0.100911 -13.4659 3.5184 -9.3739 -0.124409 -1.7422 -67.3899 -0.402232 2.75727 -0.160375 -0.0957008 3.5935 1.70755e-006 1.51545e-005 5.97642e-006 9.3739 -0.124375 1.74221 66.6016 -5.77618 5.08901 -1.12826 0.357235 22.926 4.26887e-006 -1.19528e-005 3.18055e-015 -12.9704 6.93927 9.97467 0.716009 -4.76268 0.0193794 8.04605 -1.45685 -0.445083 0.152831 -0.310074 19.9971 -11.4954 -14.3149 -4.70208 2.90703 18.6293 -0.517969 -3.38612 1.33327 0.582869 2.97873e-005 4.45563e-006 -20 
22.5087 95.4974 -3.31094 4.83517 -3.68777 22.9284 -3.05042 -1.23797e-005 -4.77903e-006 -0.0503386 13.0861 0.0024404 -6.99027e-006 -3.41509e-006 -7.90658e-006 0.103055 -13.4371 3.37397 -9.37391 -0.124406 -1.74221 -67.392 -0.398255 2.7748 -0.160668 -0.0959123 3.6006 -2.56132e-006 1.10991e-005 -3.41509e-006 9.37389 -0.12438 1.74221 66.6034 -5.77398 5.06542 -1.12946 0.357375 22.9493 3.4151e-006 -1.57948e-005 3.41509e-006 -13.0108 7.0263 9.91884 0.716018 -4.76268 0.0193787 8.03397 -1.62271 -1.00688 0.152822 -0.310081 19.9971 -11.6445 -14.1481 -4.69307 2.90524 18.6187 -0.517372 -3.21377 1.18756 -0.0386825 8.81256e-006 4.24219e-006 -20 
22.6975 95.5611 -3.21109 4.83643 -3.54511 23.6038 -3.05042 -9.8184e-006 -3.83573e-006 -0.0475659 13.0705 0.00223753 -6.65677e-006 -1.70755e-006 6.02811e-007 0.105198 -13.4071 3.22681 -9.3739 -0.1244 -1.74221 -67.3944 -0.394264 2.79188 -0.160947 -0.096084 3.60712 -1.28066e-005 6.18986e-006 -2.56132e-006 9.3739 -0.12438 1.7422 66.605 -5.77167 5.04202 -1.13061 0.357488 22.9721 -1.36604e-005 -7.68396e-006 -1.70755e-006 -13.0345 7.09164 9.74387 0.71602 -4.76268 0.0193859 8.01503 -1.76557 -1.51335 0.152832 -0.310076 19.9971 -11.7477 -13.8293 -4.67553 2.8493 18.2852 -0.498933 -3.02472 1.20855 -0.702762 2.41028e-005 3.8153e-006 -20 
22.8709 95.5967 -3.13108 4.8352 -3.39214 24.3219 -3.05041 -1.75024e-005 -1.99415e-006 -0.0444256 13.0551 0.0020302 -1.06455e-005 -4.26887e-006 -1.07397e-005 0.107348 -13.3761 3.07701 -9.3739 -0.124413 -1.74221 -67.3972 -0.390269 2.80858 -0.16122 -0.0962453 3.61299 -5.64548e-014 -1.92099e-006 -1.70755e-006 9.3739 -0.124376 1.7422 66.6065 -5.76927 5.0188 -1.13177 0.357608 22.9943 5.12264e-006 -1.15259e-005 3.41509e-006 -13.0536 7.13799 9.461 0.716018 -4.76268 0.0193763 8.0003 -1.88939 -1.96452 0.15282 -0.310088 19.9971 -11.8689 -13.6052 -4.66366 2.82095 18.1157 -0.489709 -2.85034 1.16008 -1.41218 2.2645e-005 4.80248e-006 -20 
23.0296 95.5921 -3.07401 4.83121 -3.23099 25.0736 -3.05043 -1.66486e-005 3.78216e-006 -0.0409497 13.04 0.00182166 5.46282e-006 -4.26887e-006 -6.12816e-006 0.109496 -13.344 2.92462 -9.3739 -0.124415 -1.74222 -67.4005 -0.386262 2.82479 -0.161438 -0.0963973 3.61825 -3.41509e-006 -3.18055e-015 -3.41509e-006 9.3739 -0.124389 1.7422 66.6079 -5.76675 4.99581 -1.1329 0.357711 23.0158 1.70755e-006 -1.32335e-005 -0 -13.0719 7.16513 9.08022 0.716006 -4.76267 0.0193818 7.99349 -1.99385 -2.36038 0.152824 -0.31007 19.9971 -12.0191 -13.5169 -4.65959 2.83316 18.1888 -0.493674 -2.69506 1.00541 -2.15838 1.69035e-005 1.89831e-005 -20 
23.1744 95.5871 -3.04297 4.8242 -3.06379 25.8496 -3.05042 -2.04906e-005 5.24854e-007 -0.0371123 13.025 0.00159864 -7.33712e-008 2.38542e-015 -1.03387e-007 0.111649 -13.3109 2.76971 -9.3739 -0.12441 -1.74221 -67.4041 -0.382241 2.84055 -0.161661 -0.0965243 3.62293 1.53679e-005 7.04363e-006 -3.41509e-006 9.37389 -0.12437 1.7422 66.6091 -5.76413 4.97304 -1.13399 0.357828 23.0369 9.39151e-006 -4.69575e-006 -3.18055e-015 -13.0872 7.17006 8.61053 0.71601 -4.76268 0.019389 7.99257 -2.07473 -2.70069 0.152828 -0.310069 19.9971 -12.1664 -13.4382 -4.6565 2.84322 18.249 -0.496956 -2.54142 0.872127 -2.92563 2.40382e-005 -1.06722e-007 -20 
23.3063 95.5818 -3.04104 4.8141 -2.89267 26.6408 -3.05042 -1.19528e-005 -6.49919e-007 -0.0329203 13.0104 0.00137866 5.13598e-007 -1.70755e-006 6.30659e-006 0.113792 -13.2768 2.61239 -9.3739 -0.124406 -1.7422 -67.4081 -0.3782 2.85585 -0.161822 -0.0966445 3.62698 2.56132e-006 1.36604e-005 -1.02453e-005 9.37389 -0.124385 1.74221 66.6102 -5.76141 4.95045 -1.13502 0.35794 23.0573 -1.02453e-005 -3.41509e-006 -6.83019e-006 -13.1023 7.15184 8.06174 0.716021 -4.76268 0.019376 7.9998 -2.13074 -2.98538 0.152818 -0.310069 19.9971 -12.3121 -13.3701 -4.65466 2.85083 18.2943 -0.499438 -2.38822 0.763543 -3.70437 1.70334e-005 4.36225e-006 -20 
23.4221 95.576 -3.0637 4.80091 -2.71978 27.4381 -3.05042 -2.04906e-005 -1.63855e-006 -0.0283634 12.9959 0.00115736 6.81685e-006 2.38542e-015 8.37265e-006 0.115918 -13.2418 2.45267 -9.37389 -0.124403 -1.7422 -67.4126 -0.374165 2.87071 -0.161991 -0.0967407 3.63042 1.70755e-006 6.83019e-006 1.70755e-006 9.3739 -0.12438 1.74221 66.6111 -5.75862 4.92807 -1.13606 0.358067 23.0771 -1.70755e-006 -8.96462e-006 1.70755e-006 -13.1157 7.11311 7.44285 0.716033 -4.76268 0.0193853 8.01276 -2.1633 -3.21336 0.152824 -0.310072 19.9971 -12.4535 -13.3135 -4.65421 2.85668 18.3293 -0.501357 -2.23889 0.675963 -4.48574 2.1267e-005 7.25708e-006 -20 
23.5192 95.5699 -3.10349 4.78475 -2.54726 28.2321 -3.05041 -1.53679e-005 -7.02696e-006 -0.0234401 12.9817 0.000926282 -5.63624e-007 -7.95139e-016 6.28157e-006 0.118023 -13.2058 2.29069 -9.3739 -0.124415 -1.7422 -67.4174 -0.370117 2.8851 -0.162108 -0.0968156 3.63322 2.56132e-006 -2.98821e-006 -2.56132e-006 9.3739 -0.124377 1.74221 66.6119 -5.7557 4.90594 -1.13704 0.358165 23.0963 -2.56132e-006 -1.06722e-005 3.41509e-006 -13.1252 7.05816 6.76277 0.716012 -4.76269 0.0193757 8.02802 -2.1754 -3.38297 0.152831 -0.31007 19.9971 -12.5876 -13.2689 -4.65524 2.86198 18.361 -0.503087 -2.09767 0.603058 -5.26082 2.08175e-005 7.27042e-006 -20 
23.5986 95.5636 -3.15906 4.76586 -2.37723 29.0137 -3.05041 -1.19528e-005 -4.06251e-006 -0.0181443 12.9678 0.000707589 -3.79862e-006 -7.68396e-006 7.59183e-006 0.120073 -13.1689 2.12646 -9.37391 -0.124421 -1.74221 -67.4227 -0.366054 2.89903 -0.162196 -0.0968739 3.63541 -3.41509e-006 6.83019e-006 -5.97642e-006 9.37389 -0.12438 1.74221 66.6126 -5.7527 4.88404 -1.13801 0.358262 23.1149 3.41509e-006 3.41509e-006 -3.18055e-015 -13.1321 6.98861 6.03103 0.716007 -4.76267 0.0193769 8.04627 -2.1682 -3.49358 0.15283 -0.310078 19.9971 -12.7147 -13.2363 -4.65784 2.86678 18.3896 -0.504665 -1.96449 0.544475 -6.02034 1.874e-005 -9.33815e-007 -20 
23.6616 95.5569 -3.22906 4.74454 -2.21177 29.7736 -3.05042 -1.53679e-005 -4.93515e-006 -0.0124818 12.9541 0.000472671 -1.40406e-006 7.95139e-016 9.85091e-007 0.122092 -13.1312 1.96009 -9.3739 -0.124411 -1.74221 -67.4284 -0.361976 2.91245 -0.162262 -0.0969161 3.63698 -5.97641e-006 -6.83019e-006 1.02453e-005 9.3739 -0.124376 1.74221 66.6131 -5.74958 4.86237 -1.13897 0.358344 23.1329 9.39151e-006 -5.54953e-006 -5.12264e-006 -13.1379 6.90622 5.25719 0.716021 -4.76268 0.0193857 8.06812 -2.14289 -3.54449 0.152821 -0.310076 19.9971 -12.8349 -13.2154 -4.66207 2.87113 18.4156 -0.506102 -1.83931 0.500096 -6.75492 2.42619e-005 9.24477e-006 -20 
23.7092 95.5499 -3.31216 4.7213 -2.05302 30.5028 -3.05043 -1.10991e-005 4.46605e-006 -0.00643171 12.9406 0.000244476 -1.23997e-005 1.45141e-005 -2.44105e-006 0.124068 -13.0925 1.79163 -9.37391 -0.124404 -1.74222 -67.4345 -0.357908 2.92542 -0.162317 -0.096948 3.63792 1.19528e-005 1.96368e-005 -0 9.37389 -0.12437 1.7422 66.6134 -5.74637 4.8409 -1.13986 0.358454 23.1504 8.53774e-006 -1.57948e-005 -5.12264e-006 -13.1438 6.81281 4.45081 0.716021 -4.76268 0.0193779 8.09419 -2.10061 -3.53503 0.15282 -0.310082 19.9971 -12.9483 -13.2063 -4.66797 2.87509 18.4391 -0.5074 -1.72214 0.46977 -7.45523 1.84408e-005 1.07255e-005 -20 
23.7426 95.5427 -3.407 4.69662 -1.903 31.1921 -3.05041 -2.17712e-005 -1.27749e-005 -2.33784e-005 12.9275 1.12648e-005 -7.42049e-006 5.12264e-006 -1.16102e-006 0.12597 -13.0531 1.62117 -9.37391 -0.124405 -1.74222 -67.4411 -0.353817 2.93791 -0.162315 -0.0969503 3.63823 1.89243e-013 6.4033e-006 -1.70755e-006 9.37389 -0.124375 1.74219 66.6136 -5.74304 4.81969 -1.1407 0.35854 23.1672 -5.12264e-006 -1.32335e-005 -1.70755e-006 -13.151 6.71016 3.6213 0.716009 -4.76267 0.0193824 8.12503 -2.04256 -3.46454 0.152824 -0.310081 19.9971 -13.055 -13.2087 -4.67561 2.8786 18.4602 -0.508552 -1.61304 0.453529 -8.11199 9.3597e-006 2.00103e-006 -20 
